<svg width="315" height="314" viewBox="0 0 315 314" fill="none" xmlns="http://www.w3.org/2000/svg">
<g filter="url(#filter0_b_56_9)">
<path d="M222.276 253.175C242.888 239.335 258.511 219.24 266.842 195.853C275.173 172.466 275.771 147.022 268.548 123.273C261.325 99.5227 246.663 78.7227 226.722 63.9379C206.782 49.1531 182.618 41.1656 157.791 41.1522C132.965 41.1389 108.79 49.1004 88.8273 63.8634C68.8651 78.6264 54.1719 99.4102 46.9132 123.152C39.6545 146.894 40.2142 172.338 48.51 195.734C56.8058 219.131 72.3989 239.242 92.9913 253.105" stroke="black" stroke-opacity="0.4" stroke-width="8"/>
</g>
<path d="M111.389 220.446C100.847 212.347 92.6007 201.713 87.4351 189.555C82.2696 177.397 80.3561 164.119 81.8762 150.985C83.3963 137.851 88.2995 125.296 96.1195 114.515C103.939 103.733 114.416 95.0826 126.554 89.3861C138.692 83.6896 152.088 81.1362 165.468 81.969C178.847 82.8018 191.766 86.9931 202.996 94.1446C214.225 101.296 223.392 111.17 229.625 122.827C235.858 134.485 238.949 147.538 238.605 160.745" stroke="black" stroke-opacity="0.2" stroke-width="2"/>
<g filter="url(#filter1_b_56_9)">
<path d="M110.767 221.229C100.884 213.637 92.9829 203.836 87.7086 192.629C82.4343 181.423 79.937 169.128 80.4206 156.753C80.9041 144.377 84.3548 132.271 90.4898 121.425C96.6249 110.579 105.27 101.301 115.719 94.3501C126.167 87.399 138.123 82.9721 150.606 81.432C163.09 79.8918 175.749 81.2823 187.545 85.49C199.342 89.6978 209.941 96.6032 218.476 105.641C227.011 114.679 233.239 125.593 236.65 137.489" stroke="#D5D5D5" stroke-width="4"/>
</g>
<path fill-rule="evenodd" clip-rule="evenodd" d="M47.0015 142.599C49.6655 122.008 58.0008 102.563 71.0765 86.4351C84.1522 70.3072 101.454 58.1314 121.049 51.2673C140.644 44.4032 161.761 43.1212 182.043 47.5642C202.325 52.0073 220.972 62.0006 235.903 76.4282C250.834 90.8558 261.46 109.15 266.596 129.267C271.689 149.218 271.182 170.184 265.137 189.861L277.5 193.051L277 194.988L246 186.988L246.5 185.051L257.382 187.86C263.097 169.488 263.604 149.89 258.844 131.246C254.076 112.565 244.208 95.5782 230.344 82.1811C216.479 68.7841 199.164 59.5046 180.331 55.3789C161.498 51.2532 141.889 52.4437 123.694 58.8175C105.498 65.1913 89.4325 76.4974 77.2907 91.4733C65.149 106.449 57.4091 124.505 54.9354 143.626C52.4616 162.746 55.3514 182.177 63.2821 199.75C71.2127 217.323 83.872 232.346 99.8463 243.14L95.3671 249.769C78.164 238.144 64.5309 221.966 55.9903 203.041C47.4496 184.116 44.3375 163.19 47.0015 142.599Z" fill="white"/>
<defs>
<filter id="filter0_b_56_9" x="25.8506" y="25.1521" width="263.709" height="243.344" filterUnits="userSpaceOnUse" color-interpolation-filters="sRGB">
<feFlood flood-opacity="0" result="BackgroundImageFix"/>
<feGaussianBlur in="BackgroundImageFix" stdDeviation="6"/>
<feComposite in2="SourceAlpha" operator="in" result="effect1_backgroundBlur_56_9"/>
<feBlend mode="normal" in="SourceGraphic" in2="effect1_backgroundBlur_56_9" result="shape"/>
</filter>
<filter id="filter1_b_56_9" x="38.3459" y="38.8386" width="240.244" height="223.957" filterUnits="userSpaceOnUse" color-interpolation-filters="sRGB">
<feFlood flood-opacity="0" result="BackgroundImageFix"/>
<feGaussianBlur in="BackgroundImageFix" stdDeviation="20"/>
<feComposite in2="SourceAlpha" operator="in" result="effect1_backgroundBlur_56_9"/>
<feBlend mode="normal" in="SourceGraphic" in2="effect1_backgroundBlur_56_9" result="shape"/>
</filter>
</defs>
</svg>
