<svg width="14" height="14" viewBox="0 0 14 14" fill="none" xmlns="http://www.w3.org/2000/svg">
<path d="M0.9093 10.917C1.2117 11.8495 2.1308 12.4445 3.1115 12.4445H3.15C3.23997 12.8837 3.47878 13.2783 3.82608 13.5617C4.17337 13.8451 4.60785 13.9999 5.0561 14C5.376 14 5.6749 13.9195 5.9395 13.7809C6.04993 13.7203 6.14181 13.6309 6.20531 13.5221C6.26881 13.4134 6.30154 13.2894 6.3 13.1634V0.718026C6.30141 0.557645 6.24755 0.40167 6.14747 0.276342C6.0474 0.151013 5.90721 0.0639786 5.7505 0.0298804C5.39932 -0.0383352 5.03544 0.0111196 4.7152 0.17059C4.1944 0.419806 3.8892 0.976343 3.8892 1.55528V1.59378C3.49945 1.51423 3.09468 1.55613 2.72948 1.71382C2.36428 1.87151 2.05622 2.13742 1.84686 2.47568C1.6375 2.81393 1.5369 3.20826 1.55863 3.60548C1.58036 4.0027 1.72338 4.3837 1.9684 4.69709C1.41966 4.78307 0.919713 5.06236 0.558769 5.48456C0.197825 5.90676 -0.000350302 6.44407 4.64842e-07 6.99954C4.64842e-07 7.82419 0.4277 8.54734 1.0731 8.96807C0.7721 9.5078 0.6734 10.1903 0.9093 10.917ZM12.0316 4.69709C12.2766 4.3837 12.4196 4.0027 12.4414 3.60548C12.4631 3.20826 12.3625 2.81393 12.1531 2.47568C11.9438 2.13742 11.6357 1.87151 11.2705 1.71382C10.9053 1.55613 10.5006 1.51423 10.1108 1.59378V1.55528C10.1108 0.977043 9.8049 0.419806 9.2841 0.17059C8.96412 0.0110722 8.60045 -0.0383883 8.2495 0.0298804C8.09285 0.0640989 7.95274 0.151166 7.85268 0.276467C7.75263 0.401769 7.69872 0.557678 7.7 0.718026V13.1627C7.7 13.4183 7.8344 13.6612 8.0612 13.7802C8.3258 13.9195 8.624 14 8.9439 14C9.39225 13.9999 9.82681 13.845 10.1741 13.5614C10.5214 13.2779 10.7602 12.8831 10.85 12.4438H10.8892C11.8692 12.4438 12.789 11.8488 13.0914 10.9163C13.3273 10.1896 13.2286 9.5071 12.9276 8.96737C13.2564 8.75493 13.5267 8.46357 13.7141 8.11985C13.9014 7.77613 13.9997 7.39099 14 6.99954C14.0003 6.44407 13.8022 5.90676 13.4412 5.48456C13.0803 5.06236 12.5803 4.78307 12.0316 4.69709Z" fill="white"/>
</svg>
