<svg width="16" height="14" viewBox="0 0 16 14" fill="none" xmlns="http://www.w3.org/2000/svg">
<path d="M14.5 7H1.5C1.10218 7 0.720644 7.15804 0.43934 7.43934C0.158035 7.72064 0 8.10218 0 8.5C0 8.89782 0.158035 9.27936 0.43934 9.56066C0.720644 9.84196 1.10218 10 1.5 10H14.5C14.8978 10 15.2794 9.84196 15.5607 9.56066C15.842 9.27936 16 8.89782 16 8.5C16 8.10218 15.842 7.72064 15.5607 7.43934C15.2794 7.15804 14.8978 7 14.5 7ZM15 11H1C0.867392 11 0.740215 11.0527 0.646447 11.1464C0.552678 11.2402 0.5 11.3674 0.5 11.5V12C0.5 12.5304 0.710714 13.0391 1.08579 13.4142C1.46086 13.7893 1.96957 14 2.5 14H13.5C14.0304 14 14.5391 13.7893 14.9142 13.4142C15.2893 13.0391 15.5 12.5304 15.5 12V11.5C15.5 11.3674 15.4473 11.2402 15.3536 11.1464C15.2598 11.0527 15.1326 11 15 11ZM1.8325 6H14.1675C15.2478 6 15.8744 4.62812 15.2556 3.62875C14 1.6 11.2359 0.003125 8 0C4.76437 0.003125 2 1.6 0.744375 3.62844C0.125 4.62781 0.752187 6 1.8325 6ZM12 2.5C12.0989 2.5 12.1956 2.52932 12.2778 2.58427C12.36 2.63921 12.4241 2.7173 12.4619 2.80866C12.4998 2.90002 12.5097 3.00055 12.4904 3.09755C12.4711 3.19454 12.4235 3.28363 12.3536 3.35355C12.2836 3.42348 12.1945 3.4711 12.0975 3.49039C12.0006 3.50969 11.9 3.49978 11.8087 3.46194C11.7173 3.4241 11.6392 3.36001 11.5843 3.27779C11.5293 3.19556 11.5 3.09889 11.5 3C11.5 2.86739 11.5527 2.74021 11.6464 2.64645C11.7402 2.55268 11.8674 2.5 12 2.5ZM8 1.5C8.09889 1.5 8.19556 1.52932 8.27779 1.58427C8.36001 1.63921 8.4241 1.7173 8.46194 1.80866C8.49978 1.90002 8.50969 2.00055 8.49039 2.09755C8.4711 2.19454 8.42348 2.28363 8.35355 2.35355C8.28363 2.42348 8.19454 2.4711 8.09755 2.49039C8.00056 2.50969 7.90002 2.49978 7.80866 2.46194C7.7173 2.4241 7.63921 2.36001 7.58427 2.27779C7.52932 2.19556 7.5 2.09889 7.5 2C7.5 1.86739 7.55268 1.74021 7.64645 1.64645C7.74021 1.55268 7.86739 1.5 8 1.5ZM4 2.5C4.09889 2.5 4.19556 2.52932 4.27779 2.58427C4.36001 2.63921 4.4241 2.7173 4.46194 2.80866C4.49978 2.90002 4.50969 3.00055 4.49039 3.09755C4.4711 3.19454 4.42348 3.28363 4.35355 3.35355C4.28363 3.42348 4.19454 3.4711 4.09755 3.49039C4.00055 3.50969 3.90002 3.49978 3.80866 3.46194C3.7173 3.4241 3.63921 3.36001 3.58427 3.27779C3.52932 3.19556 3.5 3.09889 3.5 3C3.5 2.86739 3.55268 2.74021 3.64645 2.64645C3.74021 2.55268 3.86739 2.5 4 2.5Z" fill="white"/>
</svg>
