<svg width="16" height="14" viewBox="0 0 16 14" fill="none" xmlns="http://www.w3.org/2000/svg">
<path d="M3.99167 0.0662574C4.6994 -0.050958 5.42517 -0.0122915 6.11549 0.179407C6.8058 0.371105 7.44306 0.710947 7.98028 1.17388L8.00987 1.19953L8.03706 1.17622C8.54979 0.738836 9.15257 0.412766 9.80521 0.219757C10.4578 0.0267479 11.1453 -0.0287621 11.8218 0.0569301L12.0185 0.0849123C12.8711 0.228017 13.6681 0.592598 14.325 1.14005C14.9819 1.6875 15.4743 2.39744 15.75 3.19469C16.0256 3.99193 16.0744 4.84682 15.8911 5.6688C15.7077 6.49078 15.2991 7.24927 14.7085 7.86394L14.5645 8.00774L14.5261 8.03961L8.56882 13.7752C8.43134 13.9074 8.2492 13.9868 8.05615 13.9985C7.8631 14.0102 7.67223 13.9535 7.51889 13.8389L7.44372 13.7752L1.45201 8.00619C0.817267 7.40586 0.365854 6.64647 0.147759 5.81213C-0.0703362 4.97778 -0.0466007 4.10104 0.216336 3.27901C0.479273 2.45697 0.97115 1.72171 1.63749 1.15466C2.30384 0.587615 3.11864 0.210907 3.99167 0.0662574Z" fill="white"/>
</svg>
