<svg width="10" height="14" viewBox="0 0 10 14" fill="none" xmlns="http://www.w3.org/2000/svg">
<path d="M5.17188 11.9C5.29688 11.8883 5.40375 11.8328 5.4925 11.7334C5.58125 11.634 5.62542 11.5145 5.625 11.375C5.625 11.2117 5.57812 11.0805 5.48438 10.9816C5.39062 10.8827 5.27083 10.8388 5.125 10.85C4.69792 10.885 4.24479 10.7539 3.76562 10.4566C3.28646 10.1593 2.98438 9.61963 2.85938 8.8375C2.83854 8.70917 2.78396 8.60417 2.69562 8.5225C2.60729 8.44083 2.50562 8.4 2.39062 8.4C2.24479 8.4 2.125 8.46137 2.03125 8.5841C1.9375 8.70683 1.90625 8.84963 1.9375 9.0125C2.11458 10.0742 2.53125 10.8325 3.1875 11.2875C3.84375 11.7425 4.50521 11.9467 5.17188 11.9ZM5 14C3.57292 14 2.38292 13.4517 1.43 12.355C0.477083 11.2583 0.000416667 9.89333 0 8.26C0 7.09333 0.414167 5.8247 1.2425 4.4541C2.07083 3.0835 3.32333 1.5988 5 0C6.67708 1.59833 7.92979 3.08303 8.75813 4.4541C9.58646 5.82517 10.0004 7.0938 10 8.26C10 9.89333 9.52354 11.2583 8.57062 12.355C7.61771 13.4517 6.4275 14 5 14Z" fill="white"/>
</svg>
